<?xml version="1.0" standalone="no"?>
<!DOCTYPE svg PUBLIC "-//W3C//DTD SVG 20010904//EN"
 "http://www.w3.org/TR/2001/REC-SVG-20010904/DTD/svg10.dtd">
<svg version="1.0" xmlns="http://www.w3.org/2000/svg"
 width="712.000000pt" height="712.000000pt" viewBox="0 0 712.000000 712.000000"
 preserveAspectRatio="xMidYMid meet">
<metadata>
Created by potrace 1.14, written by Peter Selinger 2001-2017
</metadata>
<g transform="translate(0.000000,712.000000) scale(0.100000,-0.100000)"
fill="#000000" stroke="none">
<path d="M2425 7000 c-53 -12 -123 -35 -170 -59 -44 -22 -255 -159 -470 -306
-214 -147 -446 -300 -515 -341 -239 -143 -462 -247 -609 -284 l-44 -11 39 -41
c89 -93 215 -153 349 -168 65 -8 98 -18 180 -59 131 -65 139 -68 237 -81 45
-6 111 -23 146 -36 98 -40 119 -44 252 -54 90 -6 146 -16 199 -34 93 -32 120
-32 221 0 45 14 83 24 85 22 1 -2 25 -52 53 -111 59 -126 92 -170 172 -233
l58 -46 -24 -64 c-65 -173 8 -420 176 -597 43 -45 96 -93 119 -107 26 -16 41
-32 41 -46 0 -11 -22 -49 -50 -83 -64 -80 -94 -131 -119 -208 -18 -54 -21 -87
-21 -240 0 -98 5 -207 10 -242 18 -109 74 -214 190 -356 l58 -70 -35 -40 c-57
-67 -136 -187 -160 -245 -20 -48 -23 -72 -23 -195 0 -159 16 -252 55 -323 14
-27 66 -99 115 -162 125 -160 120 -147 72 -219 -51 -77 -67 -146 -59 -262 11
-153 56 -263 148 -365 27 -30 49 -64 49 -75 0 -11 -17 -51 -37 -87 -33 -59
-37 -75 -41 -153 -11 -236 60 -369 246 -458 l89 -42 5 -172 c6 -175 16 -226
51 -255 22 -18 51 -7 66 24 12 27 31 251 31 370 l0 71 66 6 c144 14 244 112
289 284 17 66 19 168 4 233 -5 25 -28 72 -50 106 -21 33 -39 66 -39 74 0 7 25
44 57 83 120 149 163 252 163 391 0 46 -7 106 -16 137 -22 75 -84 191 -106
197 -40 10 -8 58 121 184 126 123 157 181 172 320 14 131 -1 310 -31 374 -13
25 -61 86 -107 135 l-85 89 52 47 c29 27 58 51 65 55 26 16 126 147 154 204
38 77 49 122 61 239 11 117 -2 252 -30 329 -26 67 -79 148 -159 240 l-60 69
97 106 c199 217 252 325 252 511 0 86 14 160 30 160 4 0 44 34 88 75 61 57 89
94 121 154 22 43 46 83 54 89 16 13 118 26 382 47 225 18 315 35 394 70 45 21
68 25 153 25 94 0 106 2 192 39 50 21 117 44 149 50 31 6 81 16 110 21 73 14
122 42 191 108 74 72 116 136 116 179 l0 33 -104 0 -105 0 -118 59 c-222 112
-470 268 -795 503 -369 266 -523 356 -683 400 -64 17 -109 22 -220 22 -178 1
-224 -15 -326 -111 -189 -178 -207 -445 -46 -670 21 -28 37 -56 37 -62 0 -7
-26 -24 -57 -38 -49 -23 -72 -27 -153 -27 l-95 -1 -8 105 c-14 176 -6 251 38
360 62 155 51 265 -34 363 -37 42 -117 83 -179 93 -59 9 -152 -13 -214 -50
-138 -82 -182 -243 -113 -407 39 -92 55 -171 55 -276 0 -121 -17 -166 -71
-187 -63 -25 -119 -21 -165 13 -21 15 -50 40 -63 54 -23 26 -23 26 -5 56 11
16 40 57 67 91 63 83 92 176 83 267 -17 165 -115 311 -259 384 -113 58 -288
73 -452 39z m330 -62 c79 -17 165 -66 226 -129 70 -71 83 -107 77 -213 -6
-104 -31 -156 -120 -252 -51 -55 -68 -81 -68 -102 0 -38 46 -106 120 -177 l61
-58 52 7 c29 3 82 9 118 12 l67 7 7 -89 c10 -110 -1 -267 -20 -304 -12 -23
-25 -31 -72 -41 -164 -35 -336 15 -452 132 -69 68 -116 226 -76 255 28 21 9
31 -72 39 -239 22 -405 178 -433 405 -15 117 -18 130 -35 130 -8 0 -27 -18
-42 -41 -91 -138 -778 -574 -984 -624 -103 -26 -244 -17 -323 19 l-60 27 235
117 c274 137 437 237 782 476 337 233 503 334 637 386 94 37 251 45 375 18z
m1842 -11 c149 -53 312 -152 665 -403 410 -292 698 -462 923 -543 107 -39 122
-55 88 -93 -44 -49 -91 -63 -208 -62 -231 2 -418 88 -785 363 -157 117 -253
211 -301 293 -22 37 -42 68 -44 68 -2 0 -11 3 -19 6 -14 6 -16 -2 -10 -65 15
-161 -70 -318 -220 -406 -47 -27 -155 -44 -288 -45 -32 0 -58 -2 -58 -5 0 -3
7 -17 16 -30 50 -76 -84 -280 -228 -348 -101 -48 -224 -58 -338 -29 l-65 17
-6 195 c-4 107 -5 198 -3 201 2 3 27 0 56 -8 70 -19 171 -12 223 15 47 24 93
70 139 138 l33 49 -64 70 c-171 184 -186 387 -40 537 99 102 148 119 337 114
103 -3 138 -8 197 -29z m-983 -12 c88 -42 146 -147 132 -238 -9 -53 -52 -131
-92 -166 -46 -41 -181 -64 -227 -39 -48 25 -127 102 -146 142 -28 56 -28 136
0 193 23 47 98 119 132 127 46 10 163 -1 201 -19z m0 -542 c18 -5 18 -18 13
-307 -7 -398 -35 -1317 -42 -1383 -4 -28 -12 -53 -19 -56 -12 -5 -150 36 -175
52 -25 16 -30 157 -37 940 l-7 774 124 -7 c68 -4 132 -10 143 -13z m-1520
-109 c20 -47 36 -91 36 -96 0 -15 -9 -22 -245 -179 -324 -217 -434 -263 -567
-239 -70 13 -121 36 -116 52 2 6 23 17 45 23 102 30 320 169 603 384 102 78
190 141 196 141 7 0 28 -39 48 -86z m3049 -78 c166 -139 531 -392 603 -418 38
-13 44 -36 17 -60 -96 -84 -440 68 -686 301 -90 86 -127 140 -127 185 0 31 18
78 32 88 18 10 75 -24 161 -96z m-2897 -133 c35 -32 64 -61 64 -65 0 -4 -55
-49 -122 -101 -260 -199 -337 -238 -474 -245 -59 -3 -99 0 -113 8 -21 11 -22
13 -6 30 9 10 51 38 93 63 104 60 214 144 351 266 62 55 120 101 128 101 8 0
43 -26 79 -57z m2695 -40 c30 -26 85 -76 123 -112 38 -35 124 -99 190 -142
201 -129 207 -139 78 -139 -147 0 -241 35 -378 138 -116 88 -196 175 -192 209
3 30 76 93 108 93 10 0 42 -21 71 -47z m-2433 -59 c27 -11 32 -18 32 -45 0
-27 -13 -45 -82 -114 -144 -141 -261 -205 -381 -208 -87 -3 -92 16 -20 77 32
27 110 103 173 167 63 65 128 125 144 133 31 16 80 12 134 -10z m2145 -14 c15
-12 53 -58 86 -103 56 -77 156 -180 215 -220 33 -22 33 -32 1 -53 -24 -16 -30
-16 -93 0 -101 25 -163 59 -248 139 -120 112 -160 191 -116 229 39 34 117 38
155 8z m-2034 -184 c29 -46 168 -178 222 -209 74 -44 148 -57 311 -57 l148 0
0 -55 c0 -37 -4 -57 -13 -61 -7 -2 -39 2 -69 10 -87 22 -207 30 -269 17 -66
-14 -189 -74 -220 -107 -12 -13 -33 -24 -46 -24 -57 0 -201 138 -254 243 -29
57 -30 62 -16 91 24 51 146 186 166 186 11 0 28 -15 40 -34z m1920 -121 c64
-66 91 -101 91 -118 0 -46 -177 -255 -230 -272 -23 -7 -38 0 -134 69 -136 97
-267 124 -425 87 -52 -12 -99 -20 -106 -17 -16 6 -26 71 -16 99 8 21 12 22
147 19 77 -2 164 2 194 7 83 16 165 62 264 146 50 41 97 75 106 75 10 0 58
-43 109 -95z m-493 -266 c84 -16 151 -50 213 -111 85 -83 111 -130 111 -202
-1 -219 -164 -482 -364 -583 -60 -30 -86 -27 -193 27 -86 43 -129 80 -120 104
4 9 45 34 93 56 109 50 194 111 271 194 76 80 112 141 129 215 15 62 18 141 6
141 -4 0 -29 -18 -55 -39 -65 -54 -103 -65 -200 -57 -96 8 -137 26 -176 75
-66 84 -62 118 17 153 77 34 175 44 268 27z m-846 -34 c57 -20 70 -32 70 -65
0 -44 -52 -104 -117 -136 -48 -24 -71 -29 -134 -29 -78 0 -84 3 -175 70 -9 6
-17 6 -26 -3 -17 -17 4 -188 30 -238 27 -52 123 -142 201 -188 85 -49 222
-106 368 -151 168 -53 303 -108 418 -171 55 -30 111 -61 125 -68 43 -23 189
-197 223 -266 29 -59 32 -75 36 -177 7 -232 -67 -403 -227 -526 -92 -71 -123
-83 -172 -67 -23 8 -69 32 -103 54 -52 34 -63 46 -65 73 -3 26 7 42 63 105 90
100 127 177 133 277 4 64 1 86 -18 129 -44 103 -129 160 -500 337 -341 163
-464 237 -565 339 -175 178 -198 415 -55 570 122 132 329 188 490 131z m649
-294 c20 -10 53 -24 74 -31 21 -6 45 -22 53 -35 8 -13 24 -25 34 -28 34 -9 22
-39 -39 -99 -88 -85 -230 -168 -265 -155 -21 8 -31 54 -20 86 9 26 55 60 155
116 67 37 42 45 -45 15 -101 -34 -96 -40 -96 111 l0 130 57 -46 c31 -26 73
-54 92 -64z m-539 -3 c0 -87 -11 -162 -24 -175 -7 -7 -246 108 -246 117 0 4
20 15 44 24 24 9 79 41 122 71 43 30 85 55 92 55 9 0 12 -25 12 -92z m-169
-165 c113 -58 185 -112 176 -135 -7 -22 -72 -13 -133 18 -66 33 -187 132 -192
157 -6 30 32 20 149 -40z m32 -650 c57 -38 58 -61 8 -133 -80 -114 -86 -228
-20 -387 39 -92 84 -133 257 -233 364 -209 527 -319 584 -395 21 -27 57 -88
80 -134 42 -81 43 -87 46 -193 6 -191 -41 -332 -148 -439 -56 -57 -124 -99
-157 -99 -25 0 -114 53 -157 93 -48 45 -48 81 -1 137 68 81 104 202 85 284 -6
27 -17 61 -25 76 -31 60 -171 161 -460 331 -139 82 -172 107 -260 194 -102
102 -147 166 -193 277 -24 56 -27 79 -30 209 -6 217 19 292 143 441 l56 67 75
-34 c41 -19 94 -47 117 -62z m329 -162 c72 -46 72 -47 65 -286 -8 -236 -16
-285 -50 -285 -32 0 -86 36 -97 64 -12 34 -30 276 -30 419 l0 117 33 0 c19 0
52 -12 79 -29z m-184 -78 c13 -25 23 -238 14 -302 -4 -30 -12 -56 -19 -58 -14
-5 -68 97 -83 160 -14 55 8 158 42 194 26 28 34 29 46 6z m417 -107 c39 -64
41 -130 5 -200 -26 -51 -53 -76 -67 -62 -10 10 -17 257 -9 292 10 38 35 27 71
-30z m-589 -831 c107 -63 144 -93 144 -114 0 -10 -15 -46 -32 -81 -38 -73 -49
-171 -27 -248 20 -74 138 -185 338 -317 200 -132 283 -212 338 -322 37 -76 38
-79 38 -193 0 -111 -1 -118 -34 -183 -40 -83 -131 -179 -196 -208 -43 -19 -48
-19 -70 -5 -51 33 -59 185 -16 280 17 36 21 58 16 86 -15 89 -116 190 -273
273 -172 91 -341 231 -411 342 -79 124 -119 344 -87 477 18 76 71 188 112 237
35 41 54 38 160 -24z m323 -194 c66 -34 66 -34 66 -240 0 -102 -3 -194 -7
-204 -7 -16 -10 -17 -38 -2 -61 31 -64 45 -74 333 -4 85 -2 132 5 132 5 0 27
-9 48 -19z m-99 -175 c0 -52 -20 -110 -33 -97 -13 13 -16 107 -4 135 11 28 37
2 37 -38z m294 -28 c11 -53 -13 -146 -35 -133 -20 13 -2 165 20 165 5 0 11
-14 15 -32z m-439 -710 l75 -43 0 -121 c0 -116 1 -122 30 -167 47 -75 107
-134 230 -227 132 -100 237 -206 269 -274 34 -69 38 -147 11 -226 -23 -69
-100 -194 -125 -204 -18 -7 -18 -15 1 96 19 112 14 191 -17 253 -28 55 -129
153 -185 179 -241 112 -382 223 -452 354 -65 122 -65 324 0 407 28 36 65 30
163 -27z m258 -156 c23 -25 36 -95 37 -192 0 -98 -8 -117 -38 -101 -30 16 -34
35 -40 163 -6 147 2 173 41 130z m-93 -69 c-1 -53 -2 -56 -15 -39 -16 21 -19
53 -9 80 13 33 24 14 24 -41z m-89 -529 c10 -9 19 -22 19 -29 0 -6 -20 -41
-44 -79 -60 -90 -72 -148 -57 -274 6 -52 9 -97 6 -100 -8 -8 -31 25 -65 93
-23 45 -33 85 -42 162 -14 122 -5 164 47 219 32 33 38 36 76 31 22 -3 49 -13
60 -23z m189 -355 c11 -263 12 -557 1 -614 l-7 -40 -7 61 c-4 33 -12 199 -17
369 -9 307 -5 474 12 457 4 -4 13 -109 18 -233z m-101 164 c12 -40 15 -313 5
-350 -10 -35 -19 -28 -47 35 -55 122 -62 245 -17 316 28 46 46 46 59 -1z m252
-76 c6 -23 9 -83 7 -135 -4 -84 -6 -95 -31 -119 -14 -15 -30 -23 -34 -19 -10
10 -11 295 -1 319 12 29 46 3 59 -46z"/>
<path d="M3584 6846 c-3 -8 2 -28 10 -45 36 -68 6 -162 -65 -206 -22 -14 -37
-30 -34 -35 12 -20 72 -10 117 19 75 48 106 138 74 215 -22 54 -88 87 -102 52z"/>
<path d="M3921 5321 c-19 -12 -7 -28 35 -41 29 -10 39 -9 61 5 25 17 26 18 8
31 -21 16 -83 18 -104 5z"/>
<path d="M2966 5294 c-26 -26 -8 -37 48 -29 90 12 97 45 9 45 -25 0 -48 -6
-57 -16z"/>
</g>
</svg>
