<?xml version="1.0" standalone="no"?>
<!DOCTYPE svg PUBLIC "-//W3C//DTD SVG 20010904//EN"
 "http://www.w3.org/TR/2001/REC-SVG-20010904/DTD/svg10.dtd">
<svg version="1.0" xmlns="http://www.w3.org/2000/svg"
 width="512.000000pt" height="512.000000pt" viewBox="0 0 512.000000 512.000000"
 preserveAspectRatio="xMidYMid meet">
<metadata>
Created by potrace 1.14, written by Peter Selinger 2001-2017
</metadata>
<g transform="translate(0.000000,512.000000) scale(0.100000,-0.100000)"
fill="#000000" stroke="none">
<path d="M2330 5010 c-585 -61 -1093 -302 -1506 -714 -385 -386 -617 -847
-701 -1396 -24 -160 -24 -520 0 -680 84 -549 316 -1010 701 -1396 386 -385
847 -617 1396 -701 160 -24 520 -24 680 0 549 84 1010 316 1396 701 385 386
617 847 701 1396 24 160 24 520 0 680 -84 549 -316 1010 -701 1396 -384 383
-849 618 -1386 699 -124 19 -460 27 -580 15z m560 -135 c941 -139 1702 -823
1935 -1739 53 -211 69 -343 69 -576 0 -233 -16 -365 -69 -576 -211 -830 -859
-1478 -1689 -1689 -214 -54 -342 -69 -581 -69 -385 0 -689 71 -1030 239 -256
126 -448 267 -650 476 -341 355 -555 790 -632 1289 -24 159 -24 501 0 660 76
494 289 930 625 1281 201 210 390 350 649 480 268 135 530 208 868 243 86 9
396 -3 505 -19z"/>
<path d="M2125 4101 c-16 -10 -39 -28 -50 -41 -19 -21 -20 -40 -25 -504 l-5
-481 -477 -5 c-462 -5 -477 -6 -505 -26 -64 -47 -64 -47 -61 -496 3 -393 4
-407 24 -435 47 -64 41 -63 557 -63 l467 0 0 -467 c0 -516 -1 -510 63 -557 28
-20 39 -21 447 -21 408 0 419 1 447 21 64 47 63 41 63 557 l0 467 462 0 c440
0 464 1 503 20 22 11 49 34 60 52 19 31 20 52 20 443 l0 410 -23 33 c-13 17
-33 38 -45 45 -16 9 -144 13 -497 17 l-475 5 -5 477 c-5 462 -6 477 -26 505
-46 63 -48 63 -489 63 -372 0 -402 -1 -430 -19z"/>
</g>
</svg>
